# xmcd CD database file
#
# Track frame offsets:
#	150
#	17628
#	42317
#
# Disc length: 829 seconds
#
# Revision: 1
# Processed by: cddbd v1.4PL0 Copyright (c) Steve Scherf et al.
# Submitted via: CDex 1.50beta10
#
DISCID=1b033b03
DTITLE=Damage - Wonderful Tonight (Single)
DYEAR=1900
DGENRE=
TTITLE0=Wonderful Tonight
TTITLE1=I Am Ready
TTITLE2=Wonderful Tonight (Ethnic Boyz Mix)
EXTD=
EXTT0=
EXTT1=
EXTT2=
PLAYORDER=
